<svg xmlns="http://www.w3.org/2000/svg" viewBox="0 0 640 160" role="img" aria-label="EdTech Hub">
  <defs>
    <linearGradient id="logo-bg" x1="0" y1="0" x2="160" y2="160" gradientUnits="userSpaceOnUse">
      <stop stop-color="#24b878"/>
      <stop offset="1" stop-color="#178a58"/>
    </linearGradient>
  </defs>
  <rect x="8" y="8" width="144" height="144" rx="32" fill="url(#logo-bg)"/>
  <g fill="none" stroke="white" stroke-linecap="round" stroke-width="4" opacity="0.95">
    <circle cx="80" cy="80" r="18" fill="white" stroke="none"/>
    <line x1="80" y1="62" x2="80" y2="28"/>
    <line x1="93" y1="67" x2="118" y2="42"/>
    <line x1="98" y1="80" x2="132" y2="80"/>
    <line x1="93" y1="93" x2="118" y2="118"/>
    <line x1="80" y1="98" x2="80" y2="132"/>
    <line x1="67" y1="93" x2="42" y2="118"/>
    <line x1="62" y1="80" x2="28" y2="80"/>
    <line x1="67" y1="67" x2="42" y2="42"/>
  </g>
  <g fill="white" stroke="none">
    <circle cx="80" cy="24" r="9"/>
    <circle cx="122" cy="38" r="9"/>
    <circle cx="136" cy="80" r="9"/>
    <circle cx="122" cy="122" r="9"/>
    <circle cx="80" cy="136" r="9"/>
    <circle cx="38" cy="122" r="9"/>
    <circle cx="24" cy="80" r="9"/>
    <circle cx="38" cy="38" r="9"/>
  </g>
  <text x="80" y="90" font-family="system-ui, -apple-system, 'Plus Jakarta Sans', sans-serif" font-size="36" font-weight="800" fill="#178a58" text-anchor="middle">E</text>
  <text x="184" y="72" font-family="system-ui, -apple-system, 'Plus Jakarta Sans', sans-serif" font-size="42" font-weight="800" fill="#193f65">EdTech Hub</text>
  <text x="184" y="108" font-family="system-ui, -apple-system, 'Plus Jakarta Sans', sans-serif" font-size="20" font-weight="600" fill="#5f7d98">8 m¶n h═c Ę PWA Ę Offline</text>
</svg>
